<?xml version="1.0" standalone="no"?>
<!DOCTYPE svg PUBLIC "-//W3C//DTD SVG 20010904//EN"
 "http://www.w3.org/TR/2001/REC-SVG-20010904/DTD/svg10.dtd">
<svg version="1.0" xmlns="http://www.w3.org/2000/svg"
 width="300.000000pt" height="260.000000pt" viewBox="0 0 300.000000 260.000000"
 preserveAspectRatio="xMidYMid meet">
<metadata>
Created by potrace 1.10, written by Peter Selinger 2001-2011
</metadata>
<g transform="translate(0.000000,260.000000) scale(0.100000,-0.100000)"
fill="#000000" stroke="none">
<path d="M1385 2540 c-27 -5 -66 -10 -85 -13 -91 -13 -249 -69 -350 -125 -138
-76 -313 -231 -386 -341 -16 -24 -41 -62 -56 -85 -15 -22 -32 -50 -37 -61 -5
-11 -18 -41 -30 -65 -86 -185 -124 -421 -102 -622 17 -154 46 -261 102 -386
16 -35 29 -68 29 -73 0 -5 4 -9 8 -9 5 0 16 -16 25 -36 47 -97 214 -282 322
-355 28 -19 52 -37 55 -40 11 -13 143 -82 193 -101 135 -51 319 -88 438 -88
110 0 372 53 404 81 5 5 16 9 26 9 23 0 215 104 239 130 3 3 30 24 61 46 70
53 199 198 257 289 31 50 95 187 117 250 106 307 83 661 -59 945 -91 181 -257
366 -423 472 -115 74 -300 148 -403 162 -19 3 -62 10 -95 16 -68 11 -176 11
-250 0z m285 -45 c52 -7 109 -18 125 -24 17 -6 59 -20 95 -32 193 -65 391
-214 525 -394 177 -238 268 -589 221 -850 -9 -49 -19 -104 -21 -122 -10 -68
-85 -251 -142 -344 -71 -117 -178 -237 -278 -310 -33 -24 -62 -46 -65 -50 -11
-12 -158 -89 -210 -109 -122 -47 -287 -79 -410 -79 -75 0 -232 22 -305 43
-315 90 -565 303 -718 610 -21 44 -40 87 -42 95 -2 9 -9 30 -15 46 -7 17 -14
39 -15 50 -2 11 -10 45 -18 75 -17 62 -22 116 -22 245 0 159 14 255 52 360 8
22 17 48 18 57 6 27 95 195 138 260 108 162 349 352 522 412 202 70 376 89
565 61z"/>
<path d="M1360 2375 c-335 -52 -587 -262 -745 -618 -19 -45 -20 -46 -45 -162
-35 -163 -36 -258 -4 -450 15 -89 79 -248 137 -340 70 -111 221 -265 308 -316
175 -100 311 -139 488 -139 362 0 675 202 850 549 29 57 80 202 86 244 26 180
28 232 16 325 -18 137 -17 132 -32 182 -7 25 -13 50 -15 56 -3 17 -31 79 -72
159 -142 282 -413 475 -721 514 -103 13 -142 13 -251 -4z m401 -66 c155 -52
234 -100 350 -213 244 -237 338 -525 295 -902 -9 -79 -59 -223 -111 -318 -116
-215 -310 -380 -530 -449 -71 -23 -209 -47 -265 -47 -62 0 -197 25 -280 52
-208 67 -405 239 -520 452 -47 88 -99 242 -105 311 -1 17 -6 67 -10 112 -19
196 48 449 166 629 48 73 195 220 269 267 92 60 115 71 205 102 103 35 182 45
328 39 95 -4 134 -11 208 -35z"/>
<path d="M1177 1596 c-7 -18 1 -26 25 -26 11 0 18 7 18 20 0 23 -35 28 -43 6z"/>
<path d="M907 1584 c-11 -12 3 -24 29 -24 23 0 24 -2 24 -80 0 -73 2 -80 20
-80 18 0 20 7 20 79 0 79 0 80 27 83 14 2 28 9 31 16 3 9 -16 12 -70 12 -41 0
-78 -3 -81 -6z"/>
<path d="M1425 1574 c-27 -27 -15 -66 28 -89 42 -22 46 -51 7 -49 -14 1 -33 4
-42 9 -26 11 -23 -22 3 -36 33 -17 88 -2 101 27 15 33 3 53 -45 77 -21 9 -37
22 -37 27 0 17 30 23 56 12 21 -10 24 -9 24 7 0 33 -66 43 -95 15z"/>
<path d="M1077 1543 c-4 -3 -7 -37 -7 -75 0 -61 2 -68 20 -68 17 0 20 7 20 50
0 45 3 50 25 56 25 6 33 28 15 39 -6 4 -18 1 -27 -7 -13 -10 -17 -10 -20 0 -5
13 -16 16 -26 5z"/>
<path d="M1187 1544 c-4 -4 -7 -38 -7 -76 0 -62 2 -68 20 -68 19 0 21 5 18 72
-3 65 -13 89 -31 72z"/>
<path d="M1256 1542 c-3 -5 -5 -50 -5 -100 0 -84 2 -92 20 -92 15 0 19 7 19
37 0 29 3 34 12 25 33 -33 78 4 78 65 0 55 -28 82 -67 64 -19 -9 -29 -9 -31
-2 -4 13 -19 14 -26 3z m88 -55 c8 -21 6 -31 -7 -44 -13 -13 -19 -14 -31 -3
-19 15 -21 51 -4 68 17 17 31 10 42 -21z"/>
<path d="M1540 1542 c0 -5 12 -37 26 -73 21 -52 24 -69 16 -91 -9 -25 -8 -28
12 -28 19 0 26 13 53 94 17 52 28 97 25 100 -16 17 -31 1 -42 -44 -13 -55 -25
-57 -35 -7 -4 17 -12 38 -17 45 -12 14 -38 16 -38 4z"/>
<path d="M1700 1475 c0 -69 2 -75 20 -75 19 0 21 6 19 51 -3 55 13 78 39 56
10 -8 13 -25 9 -59 -5 -43 -4 -48 13 -48 18 0 20 7 20 65 0 60 -2 66 -25 77
-19 8 -28 8 -41 -3 -13 -11 -18 -11 -21 -1 -3 6 -11 12 -19 12 -11 0 -14 -17
-14 -75z"/>
<path d="M1875 1525 c-58 -57 -5 -148 69 -119 9 3 16 15 16 25 0 17 -3 18 -21
9 -30 -16 -49 -5 -49 28 0 35 19 55 40 42 21 -14 30 -12 30 5 0 14 -29 35 -50
35 -6 0 -22 -11 -35 -25z"/>
</g>
</svg>
