<svg id="svg" version="1.1" xmlns="http://www.w3.org/2000/svg" xmlns:xlink="http://www.w3.org/1999/xlink" width="400" height="400" viewBox="0, 0, 400,400"><g id="svgg"><path id="path0" d="M246.000 59.270 C 240.901 62.232,239.986 70.253,244.285 74.300 C 244.811 74.795,245.502 75.200,245.821 75.200 C 246.139 75.200,246.400 75.380,246.400 75.600 C 246.400 75.820,246.929 76.000,247.576 76.000 C 248.223 76.000,248.864 76.180,249.000 76.400 C 249.162 76.663,265.071 76.800,295.424 76.800 C 325.941 76.800,341.600 76.664,341.600 76.400 C 341.600 76.180,342.140 76.000,342.800 76.000 C 343.460 76.000,344.000 75.820,344.000 75.600 C 344.000 75.380,344.288 75.200,344.640 75.200 C 345.470 75.200,348.000 72.670,348.000 71.840 C 348.000 71.488,348.180 71.200,348.400 71.200 C 348.993 71.200,348.906 64.175,348.300 63.118 C 347.369 61.495,345.526 59.656,344.199 59.027 C 341.857 57.915,247.932 58.148,246.000 59.270 M57.600 115.513 C 57.600 115.685,57.147 115.863,56.593 115.909 C 55.461 116.003,52.000 119.228,52.000 120.189 C 52.000 120.525,51.820 120.800,51.600 120.800 C 51.361 120.800,51.200 122.333,51.200 124.600 C 51.200 126.867,51.361 128.400,51.600 128.400 C 51.820 128.400,52.000 128.688,52.000 129.040 C 52.000 130.011,55.574 133.200,56.664 133.200 C 57.179 133.200,57.600 133.380,57.600 133.600 C 57.600 133.864,73.600 134.000,104.800 134.000 C 136.000 134.000,152.000 133.864,152.000 133.600 C 152.000 133.380,152.360 133.200,152.800 133.200 C 153.240 133.200,153.600 133.020,153.600 132.800 C 153.600 132.580,153.891 132.400,154.246 132.400 C 156.063 132.400,158.400 128.012,158.400 124.600 C 158.400 121.451,156.038 116.800,154.439 116.800 C 154.198 116.800,154.000 116.620,154.000 116.400 C 154.000 116.180,153.651 116.000,153.224 116.000 C 152.797 116.000,152.336 115.820,152.200 115.600 C 151.903 115.119,57.600 115.032,57.600 115.513 M299.000 172.000 C 298.864 172.220,298.313 172.400,297.776 172.400 C 297.239 172.400,296.800 172.580,296.800 172.800 C 296.800 173.020,296.612 173.200,296.382 173.200 C 296.152 173.200,295.525 173.638,294.990 174.174 C 290.248 178.915,292.077 187.699,298.253 189.850 C 300.628 190.676,341.317 190.645,343.303 189.815 C 345.000 189.106,348.000 186.306,348.000 185.431 C 348.000 185.084,348.180 184.800,348.400 184.800 C 348.993 184.800,348.906 177.777,348.300 176.705 C 347.370 175.061,344.302 172.400,343.336 172.400 C 342.821 172.400,342.400 172.220,342.400 172.000 C 342.400 171.738,334.941 171.600,320.824 171.600 C 306.871 171.600,299.160 171.741,299.000 172.000 M187.895 191.438 C 187.764 191.569,185.889 191.937,183.728 192.255 C 177.897 193.114,177.213 193.255,176.973 193.644 C 176.852 193.840,176.234 194.000,175.600 194.000 C 174.966 194.000,174.336 194.180,174.200 194.400 C 174.064 194.620,173.524 194.800,173.000 194.800 C 172.476 194.800,171.936 194.980,171.800 195.200 C 171.664 195.420,171.291 195.600,170.972 195.600 C 170.653 195.600,169.538 195.981,168.496 196.447 C 167.453 196.912,166.015 197.542,165.300 197.847 C 162.217 199.159,160.936 199.786,159.938 200.471 C 159.354 200.872,158.629 201.200,158.327 201.200 C 158.024 201.200,157.517 201.560,157.200 202.000 C 156.883 202.440,156.303 202.800,155.912 202.800 C 155.520 202.800,155.200 202.980,155.200 203.200 C 155.200 203.420,154.964 203.600,154.675 203.600 C 154.387 203.600,153.764 203.960,153.292 204.400 C 152.820 204.840,152.244 205.200,152.013 205.200 C 151.782 205.200,151.028 205.740,150.337 206.400 C 149.646 207.060,148.853 207.600,148.574 207.600 C 148.295 207.600,148.007 207.736,147.933 207.903 C 147.860 208.070,146.990 208.830,146.000 209.594 C 143.745 211.332,134.026 221.055,133.896 221.702 C 133.843 221.966,133.125 222.847,132.300 223.659 C 131.475 224.472,130.800 225.331,130.800 225.569 C 130.800 225.806,130.440 226.360,130.000 226.800 C 129.523 227.277,129.200 228.133,129.200 228.920 C 129.200 229.646,129.037 230.411,128.838 230.620 C 128.370 231.110,127.417 232.800,124.114 239.000 C 123.237 240.645,121.531 244.601,121.034 246.138 C 120.903 246.544,120.437 246.970,119.998 247.085 C 119.559 247.199,119.200 247.622,119.200 248.023 C 119.200 248.424,119.020 248.864,118.800 249.000 C 118.580 249.136,118.400 249.687,118.400 250.224 C 118.400 250.761,118.220 251.200,118.000 251.200 C 117.780 251.200,117.600 251.819,117.600 252.576 C 117.600 253.333,117.420 254.064,117.200 254.200 C 116.980 254.336,116.800 255.157,116.800 256.024 C 116.800 256.891,116.620 257.600,116.400 257.600 C 116.180 257.600,116.000 258.399,116.000 259.376 C 116.000 260.353,115.820 261.264,115.600 261.400 C 115.380 261.536,115.200 262.796,115.200 264.200 C 115.200 265.604,115.020 266.864,114.800 267.000 C 114.154 267.399,114.280 279.196,114.938 279.969 C 115.238 280.320,115.700 282.636,115.981 285.200 C 116.259 287.730,116.746 290.970,117.062 292.400 C 118.153 297.326,118.191 298.000,117.373 298.000 C 116.803 298.000,116.747 298.107,117.120 298.480 C 117.384 298.744,117.600 299.464,117.600 300.080 C 117.600 300.696,117.780 301.200,118.000 301.200 C 118.220 301.200,118.400 301.639,118.400 302.176 C 118.400 302.713,118.580 303.264,118.800 303.400 C 119.020 303.536,119.200 304.177,119.200 304.824 C 119.200 305.471,119.380 306.000,119.600 306.000 C 119.820 306.000,120.000 306.349,120.000 306.776 C 120.000 307.203,120.180 307.664,120.400 307.800 C 120.620 307.936,120.800 308.397,120.800 308.824 C 120.800 309.251,120.980 309.600,121.200 309.600 C 121.420 309.600,121.600 309.949,121.600 310.376 C 121.600 310.803,121.780 311.264,122.000 311.400 C 122.220 311.536,122.400 312.087,122.400 312.624 C 122.400 313.161,122.580 313.600,122.800 313.600 C 123.020 313.600,123.200 313.945,123.200 314.367 C 123.200 314.788,123.352 315.193,123.537 315.267 C 123.723 315.340,124.731 317.065,125.778 319.100 C 126.825 321.135,127.843 322.800,128.040 322.800 C 128.238 322.800,128.400 323.036,128.400 323.325 C 128.400 323.613,128.720 324.198,129.111 324.625 C 129.502 325.051,130.258 326.030,130.792 326.800 C 131.325 327.570,132.086 328.491,132.481 328.847 C 132.876 329.203,133.200 329.707,133.200 329.968 C 133.200 330.543,145.022 342.400,145.595 342.400 C 145.818 342.400,146.000 342.580,146.000 342.800 C 146.000 343.020,146.230 343.200,146.512 343.200 C 146.793 343.200,147.283 343.560,147.600 344.000 C 147.917 344.440,148.417 344.800,148.712 344.800 C 149.006 344.800,149.136 344.980,149.000 345.200 C 148.864 345.420,149.084 345.600,149.488 345.600 C 149.893 345.600,150.483 345.960,150.800 346.400 C 151.117 346.840,151.657 347.200,152.000 347.200 C 152.343 347.200,152.883 347.560,153.200 348.000 C 153.517 348.440,154.097 348.800,154.488 348.800 C 154.880 348.800,155.200 348.980,155.200 349.200 C 155.200 349.420,155.470 349.600,155.800 349.600 C 156.130 349.600,156.400 349.780,156.400 350.000 C 156.400 350.220,156.670 350.400,157.000 350.400 C 157.330 350.400,157.601 350.535,157.601 350.700 C 157.602 350.865,158.592 351.450,159.800 352.000 C 161.008 352.550,161.998 353.135,161.999 353.300 C 161.999 353.465,162.360 353.600,162.800 353.600 C 163.240 353.600,163.600 353.780,163.600 354.000 C 163.600 354.220,163.872 354.400,164.204 354.400 C 164.756 354.400,167.593 355.533,169.295 356.433 C 169.677 356.635,170.322 356.800,170.728 356.800 C 171.134 356.800,171.602 356.935,171.766 357.100 C 172.126 357.460,175.611 358.385,177.700 358.675 C 178.525 358.790,179.200 359.045,179.200 359.242 C 179.200 359.439,179.920 359.600,180.800 359.600 C 181.680 359.600,182.400 359.780,182.400 360.000 C 182.400 360.222,183.467 360.400,184.800 360.400 C 186.133 360.400,187.200 360.578,187.200 360.800 C 187.200 361.038,188.725 361.200,190.976 361.200 C 193.063 361.200,194.863 361.379,195.000 361.600 C 195.142 361.830,197.263 362.000,200.000 362.000 C 202.737 362.000,204.858 361.830,205.000 361.600 C 205.137 361.379,206.937 361.200,209.024 361.200 C 211.275 361.200,212.800 361.038,212.800 360.800 C 212.800 360.577,213.875 360.400,215.224 360.400 C 216.737 360.400,217.554 360.250,217.400 360.000 C 217.249 359.756,217.863 359.600,218.976 359.600 C 219.979 359.600,220.800 359.420,220.800 359.200 C 220.800 358.980,221.430 358.800,222.200 358.800 C 222.970 358.800,223.600 358.620,223.600 358.400 C 223.600 358.180,223.735 358.028,223.900 358.062 C 224.658 358.218,228.400 357.459,228.400 357.148 C 228.400 356.957,228.762 356.800,229.205 356.800 C 229.648 356.800,230.323 356.643,230.705 356.452 C 232.798 355.404,235.295 354.400,235.811 354.400 C 236.135 354.400,236.400 354.220,236.400 354.000 C 236.400 353.780,236.760 353.600,237.200 353.600 C 237.640 353.600,238.000 353.454,238.000 353.275 C 238.000 353.096,238.630 352.702,239.400 352.400 C 240.170 352.098,240.800 351.704,240.800 351.525 C 240.800 351.346,241.145 351.200,241.567 351.200 C 241.988 351.200,242.393 351.033,242.467 350.830 C 242.540 350.626,242.870 350.401,243.200 350.330 C 243.530 350.258,244.091 349.885,244.447 349.500 C 244.803 349.115,245.348 348.800,245.659 348.800 C 245.969 348.800,246.483 348.440,246.800 348.000 C 247.117 347.560,247.657 347.200,248.000 347.200 C 248.343 347.200,248.883 346.840,249.200 346.400 C 249.517 345.960,250.025 345.600,250.328 345.600 C 250.631 345.600,251.407 345.035,252.051 344.345 C 252.696 343.655,253.299 343.160,253.392 343.245 C 253.484 343.330,266.265 356.090,281.793 371.600 L 310.026 399.800 315.148 399.800 L 320.271 399.800 321.909 398.096 C 326.906 392.893,325.866 388.605,317.657 380.559 C 310.671 373.711,309.727 372.768,302.025 364.936 C 298.745 361.600,296.003 358.917,295.931 358.973 C 295.859 359.029,294.672 357.933,293.293 356.538 C 291.914 355.142,290.877 354.000,290.988 354.000 C 291.099 354.000,288.447 351.303,285.095 348.006 C 276.876 339.923,275.830 338.876,270.982 333.886 L 266.791 329.573 267.766 328.597 C 268.303 328.061,269.064 327.077,269.457 326.411 C 269.851 325.745,270.314 325.200,270.486 325.200 C 270.659 325.200,270.800 324.930,270.800 324.600 C 270.800 324.270,270.980 324.000,271.200 324.000 C 271.420 324.000,271.600 323.730,271.600 323.400 C 271.600 323.070,271.750 322.800,271.932 322.800 C 272.115 322.800,272.520 322.305,272.832 321.700 C 273.145 321.095,273.985 319.548,274.700 318.262 C 275.415 316.975,276.000 315.660,276.000 315.338 C 276.000 315.016,276.180 314.864,276.400 315.000 C 276.628 315.141,276.800 314.796,276.800 314.200 C 276.800 313.510,276.958 313.250,277.262 313.438 C 277.518 313.596,277.616 313.550,277.482 313.333 C 277.350 313.118,277.502 312.440,277.820 311.826 C 278.139 311.211,278.400 310.459,278.400 310.154 C 278.400 309.849,278.580 309.600,278.800 309.600 C 279.020 309.600,279.200 309.251,279.200 308.824 C 279.200 308.397,279.380 307.936,279.600 307.800 C 279.820 307.664,280.000 307.203,280.000 306.776 C 280.000 306.349,280.180 306.000,280.400 306.000 C 280.620 306.000,280.800 305.471,280.800 304.824 C 280.800 304.177,280.980 303.536,281.200 303.400 C 281.420 303.264,281.600 302.713,281.600 302.176 C 281.600 301.639,281.761 301.200,281.958 301.200 C 282.155 301.200,282.385 300.480,282.469 299.600 C 282.552 298.720,282.458 298.000,282.258 298.000 C 281.859 298.000,282.056 296.382,282.938 292.400 C 283.254 290.970,283.741 287.730,284.019 285.200 C 284.300 282.636,284.762 280.320,285.062 279.969 C 285.720 279.196,285.846 267.399,285.200 267.000 C 284.980 266.864,284.800 265.604,284.800 264.200 C 284.800 262.796,284.620 261.536,284.400 261.400 C 284.180 261.264,284.000 260.353,284.000 259.376 C 284.000 258.399,283.820 257.600,283.600 257.600 C 283.380 257.600,283.200 256.880,283.200 256.000 C 283.200 255.120,283.020 254.400,282.800 254.400 C 282.580 254.400,282.400 253.680,282.400 252.800 C 282.400 251.920,282.220 251.200,282.000 251.200 C 281.780 251.200,281.600 250.753,281.600 250.207 C 281.600 249.614,281.037 248.634,280.200 247.773 C 279.430 246.980,278.800 246.074,278.800 245.760 C 278.800 245.446,278.643 244.877,278.450 244.495 C 276.967 241.550,276.400 240.251,276.400 239.796 C 276.400 239.505,276.265 239.207,276.100 239.133 C 275.935 239.060,275.350 238.101,274.800 237.002 C 274.250 235.904,273.205 234.014,272.478 232.802 C 271.628 231.385,271.220 230.257,271.335 229.637 C 271.509 228.697,271.339 228.357,269.900 226.771 C 269.515 226.347,269.200 225.814,269.200 225.587 C 269.200 225.359,268.570 224.543,267.800 223.773 C 267.030 223.003,266.400 222.205,266.400 221.999 C 266.400 221.264,255.347 210.531,252.600 208.598 C 251.060 207.515,249.509 206.307,249.153 205.914 C 248.797 205.521,248.252 205.200,247.941 205.200 C 247.631 205.200,247.117 204.840,246.800 204.400 C 246.483 203.960,245.903 203.600,245.512 203.600 C 245.120 203.600,244.800 203.420,244.800 203.200 C 244.800 202.980,244.440 202.800,244.000 202.800 C 243.560 202.800,243.200 202.620,243.200 202.400 C 243.200 202.180,242.930 202.000,242.600 202.000 C 242.270 202.000,242.000 201.820,242.000 201.600 C 242.000 201.380,241.730 201.200,241.400 201.200 C 241.070 201.200,240.799 201.065,240.797 200.900 C 240.793 200.541,238.856 199.600,238.120 199.600 C 237.834 199.600,237.600 199.420,237.600 199.200 C 237.600 198.980,237.240 198.800,236.800 198.800 C 236.360 198.800,236.000 198.620,236.000 198.400 C 236.000 198.180,235.728 198.000,235.395 198.000 C 235.062 198.000,234.477 197.835,234.095 197.633 C 232.421 196.748,229.560 195.600,229.028 195.600 C 228.709 195.600,228.336 195.420,228.200 195.200 C 228.064 194.980,227.524 194.800,227.000 194.800 C 226.476 194.800,225.936 194.620,225.800 194.400 C 225.664 194.180,225.034 194.000,224.400 194.000 C 223.766 194.000,223.148 193.840,223.027 193.644 C 222.792 193.264,222.291 193.155,216.400 192.206 C 209.175 191.041,209.123 191.037,208.763 191.681 C 208.498 192.154,208.031 192.212,206.514 191.963 C 204.035 191.555,195.954 191.557,193.465 191.966 C 191.981 192.210,191.482 192.158,191.322 191.742 C 191.116 191.203,188.373 190.960,187.895 191.438 M200.400 209.200 C 200.400 209.444,202.267 209.600,205.200 209.600 C 208.133 209.600,210.000 209.756,210.000 210.000 C 210.000 210.220,210.799 210.400,211.776 210.400 C 212.753 210.400,213.652 210.561,213.774 210.758 C 213.895 210.955,214.671 211.218,215.497 211.342 C 219.078 211.883,220.000 212.109,220.000 212.444 C 220.000 212.640,220.540 212.800,221.200 212.800 C 221.860 212.800,222.400 212.980,222.400 213.200 C 222.400 213.420,222.760 213.600,223.200 213.600 C 223.640 213.600,224.000 213.780,224.000 214.000 C 224.000 214.220,224.439 214.400,224.976 214.400 C 225.513 214.400,226.064 214.580,226.200 214.800 C 226.336 215.020,226.797 215.200,227.224 215.200 C 227.651 215.200,228.000 215.380,228.000 215.600 C 228.000 215.820,228.270 216.000,228.600 216.000 C 228.930 216.000,229.200 216.180,229.200 216.400 C 229.200 216.620,229.560 216.800,230.000 216.800 C 230.440 216.800,230.800 216.980,230.800 217.200 C 230.800 217.420,231.160 217.600,231.600 217.600 C 232.040 217.600,232.400 217.780,232.400 218.000 C 232.400 218.220,232.720 218.400,233.112 218.400 C 233.503 218.400,234.076 218.750,234.385 219.179 C 234.693 219.607,235.069 219.881,235.221 219.787 C 235.372 219.694,236.014 220.063,236.648 220.608 C 237.282 221.153,237.943 221.599,238.118 221.600 C 238.293 221.600,238.872 222.036,239.405 222.569 C 239.938 223.102,240.740 223.654,241.187 223.796 C 241.634 223.938,242.000 224.210,242.000 224.400 C 242.000 224.590,242.374 224.865,242.830 225.010 C 243.287 225.154,243.565 225.368,243.449 225.484 C 243.333 225.600,243.923 226.268,244.761 226.967 C 245.598 227.667,246.892 228.933,247.637 229.781 C 248.381 230.629,249.713 232.081,250.595 233.009 C 252.675 235.193,253.600 236.335,253.600 236.716 C 253.600 236.885,253.960 237.283,254.400 237.600 C 254.840 237.917,255.200 238.507,255.200 238.912 C 255.200 239.316,255.380 239.536,255.600 239.400 C 255.820 239.264,256.000 239.433,256.000 239.776 C 256.000 240.119,256.180 240.400,256.400 240.400 C 256.620 240.400,256.800 240.670,256.800 241.000 C 256.800 241.330,256.980 241.600,257.200 241.600 C 257.420 241.600,257.600 241.945,257.600 242.367 C 257.600 242.788,257.735 243.193,257.900 243.267 C 258.335 243.460,259.600 245.965,259.600 246.632 C 259.600 246.945,259.760 247.200,259.956 247.200 C 260.152 247.200,260.551 248.010,260.843 249.000 C 261.135 249.990,261.515 250.800,261.687 250.800 C 261.859 250.800,262.000 251.250,262.000 251.800 C 262.000 252.350,262.180 252.800,262.400 252.800 C 262.620 252.800,262.800 253.250,262.800 253.800 C 262.800 254.350,262.980 254.800,263.200 254.800 C 263.420 254.800,263.600 255.325,263.600 255.967 C 263.600 256.608,263.772 257.193,263.982 257.267 C 264.193 257.340,264.410 258.075,264.464 258.900 C 264.519 259.725,264.707 260.400,264.882 260.400 C 265.057 260.400,265.200 261.120,265.200 262.000 C 265.200 262.880,265.380 263.600,265.600 263.600 C 265.825 263.600,266.000 264.725,266.000 266.176 C 266.000 267.593,266.180 268.864,266.400 269.000 C 266.643 269.150,266.800 272.137,266.800 276.624 C 266.800 281.275,266.652 284.000,266.400 284.000 C 266.178 284.000,266.000 285.059,266.000 286.376 C 266.000 287.683,265.820 288.864,265.600 289.000 C 265.380 289.136,265.200 289.957,265.200 290.824 C 265.200 291.691,265.020 292.400,264.800 292.400 C 264.580 292.400,264.400 292.929,264.400 293.576 C 264.400 294.223,264.220 294.864,264.000 295.000 C 263.780 295.136,263.600 295.676,263.600 296.200 C 263.600 296.724,263.420 297.264,263.200 297.400 C 262.980 297.536,262.800 298.087,262.800 298.624 C 262.800 299.161,262.653 299.600,262.472 299.600 C 262.292 299.600,261.900 300.500,261.600 301.600 C 261.300 302.700,260.908 303.600,260.728 303.600 C 260.547 303.600,260.400 303.960,260.400 304.400 C 260.400 304.840,260.190 305.200,259.933 305.200 C 259.677 305.200,259.574 305.308,259.706 305.440 C 259.924 305.657,258.549 308.724,258.021 309.200 C 257.899 309.310,257.529 309.940,257.199 310.600 C 256.870 311.260,256.285 312.149,255.900 312.575 C 255.515 313.002,255.200 313.547,255.200 313.787 C 255.200 314.027,254.840 314.483,254.400 314.800 C 253.960 315.117,253.600 315.619,253.600 315.914 C 253.600 316.210,252.745 317.301,251.700 318.339 C 250.655 319.377,249.763 320.422,249.717 320.661 C 249.603 321.261,247.389 323.485,244.998 325.400 C 243.899 326.280,242.523 327.495,241.940 328.100 C 241.356 328.705,240.726 329.200,240.540 329.201 C 240.353 329.201,239.570 329.741,238.800 330.400 C 238.030 331.059,237.257 331.599,237.083 331.599 C 236.909 331.600,236.380 331.960,235.908 332.400 C 235.436 332.840,234.813 333.200,234.525 333.200 C 234.236 333.200,234.000 333.380,234.000 333.600 C 234.000 333.820,233.640 334.000,233.200 334.000 C 232.760 334.000,232.400 334.146,232.400 334.325 C 232.400 334.504,231.770 334.898,231.000 335.200 C 230.230 335.502,229.600 335.896,229.600 336.075 C 229.600 336.254,229.240 336.400,228.800 336.400 C 228.360 336.400,228.000 336.580,228.000 336.800 C 228.000 337.020,227.640 337.200,227.200 337.200 C 226.760 337.200,226.400 337.380,226.400 337.600 C 226.400 337.820,226.040 338.000,225.600 338.000 C 225.160 338.000,224.800 338.180,224.800 338.400 C 224.800 338.620,224.260 338.800,223.600 338.800 C 222.940 338.800,222.400 338.980,222.400 339.200 C 222.400 339.420,221.860 339.600,221.200 339.600 C 220.540 339.600,220.000 339.780,220.000 340.000 C 220.000 340.220,219.460 340.400,218.800 340.400 C 218.140 340.400,217.600 340.561,217.600 340.758 C 217.600 340.955,216.925 341.214,216.100 341.334 C 215.275 341.455,213.520 341.730,212.200 341.946 C 206.459 342.887,197.885 343.248,194.200 342.704 C 193.320 342.574,191.114 342.344,189.298 342.192 C 187.482 342.040,185.896 341.755,185.774 341.558 C 185.652 341.361,184.843 341.200,183.976 341.200 C 183.109 341.200,182.400 341.020,182.400 340.800 C 182.400 340.580,181.871 340.400,181.224 340.400 C 180.577 340.400,179.936 340.220,179.800 340.000 C 179.664 339.780,179.113 339.600,178.576 339.600 C 178.039 339.600,177.600 339.420,177.600 339.200 C 177.600 338.980,177.060 338.800,176.400 338.800 C 175.740 338.800,175.200 338.620,175.200 338.400 C 175.200 338.180,174.840 338.000,174.400 338.000 C 173.960 338.000,173.600 337.820,173.600 337.600 C 173.600 337.380,173.240 337.200,172.800 337.200 C 172.360 337.200,172.000 337.020,172.000 336.800 C 172.000 336.580,171.640 336.400,171.200 336.400 C 170.760 336.400,170.400 336.254,170.400 336.075 C 170.400 335.896,169.770 335.502,169.000 335.200 C 168.230 334.898,167.600 334.504,167.600 334.325 C 167.600 334.146,167.240 334.000,166.800 334.000 C 166.360 334.000,166.000 333.820,166.000 333.600 C 166.000 333.380,165.764 333.200,165.475 333.200 C 165.187 333.200,164.564 332.840,164.092 332.400 C 163.620 331.960,163.091 331.600,162.917 331.599 C 162.743 331.599,161.970 331.059,161.200 330.400 C 160.430 329.741,159.659 329.201,159.487 329.201 C 159.314 329.200,158.585 328.615,157.866 327.900 C 157.147 327.185,155.862 326.060,155.010 325.400 C 153.245 324.033,150.400 321.145,150.400 320.721 C 150.400 320.566,149.500 319.538,148.400 318.438 C 147.300 317.338,146.400 316.199,146.400 315.907 C 146.400 315.615,146.040 315.117,145.600 314.800 C 145.160 314.483,144.800 313.969,144.800 313.659 C 144.800 313.348,144.484 312.803,144.097 312.447 C 143.711 312.091,143.126 311.260,142.798 310.600 C 142.470 309.940,142.101 309.310,141.979 309.200 C 141.451 308.724,140.076 305.657,140.294 305.440 C 140.426 305.308,140.323 305.200,140.067 305.200 C 139.810 305.200,139.600 304.840,139.600 304.400 C 139.600 303.960,139.420 303.600,139.200 303.600 C 138.980 303.600,138.800 303.240,138.800 302.800 C 138.800 302.360,138.620 302.000,138.400 302.000 C 138.180 302.000,138.000 301.460,138.000 300.800 C 138.000 300.140,137.859 299.600,137.687 299.600 C 137.515 299.600,137.143 298.745,136.861 297.700 C 136.578 296.655,136.179 295.487,135.973 295.105 C 135.768 294.723,135.600 293.969,135.600 293.429 C 135.600 292.889,135.420 292.336,135.200 292.200 C 134.980 292.064,134.800 291.344,134.800 290.600 C 134.800 289.856,134.620 289.136,134.400 289.000 C 134.180 288.864,134.000 287.694,134.000 286.400 C 134.000 285.106,133.820 283.936,133.600 283.800 C 133.357 283.650,133.200 280.663,133.200 276.176 C 133.200 271.525,133.348 268.800,133.600 268.800 C 133.826 268.800,134.000 267.667,134.000 266.200 C 134.000 264.733,134.174 263.600,134.400 263.600 C 134.620 263.600,134.800 262.891,134.800 262.024 C 134.800 261.157,134.980 260.336,135.200 260.200 C 135.420 260.064,135.600 259.333,135.600 258.576 C 135.600 257.819,135.780 257.200,136.000 257.200 C 136.220 257.200,136.400 256.660,136.400 256.000 C 136.400 255.340,136.580 254.800,136.800 254.800 C 137.020 254.800,137.200 254.350,137.200 253.800 C 137.200 253.250,137.380 252.800,137.600 252.800 C 137.820 252.800,138.000 252.350,138.000 251.800 C 138.000 251.250,138.141 250.800,138.313 250.800 C 138.485 250.800,138.865 249.990,139.157 249.000 C 139.449 248.010,139.848 247.200,140.044 247.200 C 140.240 247.200,140.400 246.990,140.400 246.734 C 140.400 245.988,141.723 243.200,142.077 243.200 C 142.255 243.200,142.400 242.840,142.400 242.400 C 142.400 241.960,142.580 241.600,142.800 241.600 C 143.020 241.600,143.200 241.330,143.200 241.000 C 143.200 240.670,143.350 240.400,143.532 240.400 C 143.715 240.400,144.120 239.908,144.432 239.307 C 144.745 238.706,145.495 237.689,146.100 237.048 C 146.705 236.406,147.200 235.716,147.200 235.514 C 147.200 235.311,148.278 234.078,149.595 232.773 C 150.912 231.468,151.876 230.400,151.737 230.400 C 151.597 230.400,151.959 229.959,152.542 229.419 C 153.124 228.880,153.600 228.250,153.600 228.019 C 153.600 227.789,153.743 227.645,153.919 227.700 C 154.379 227.844,156.802 225.736,156.511 225.444 C 156.377 225.310,156.558 225.200,156.913 225.200 C 157.269 225.200,157.704 224.973,157.880 224.696 C 158.056 224.419,158.874 223.744,159.697 223.196 C 160.521 222.648,161.196 222.065,161.197 221.900 C 161.199 221.735,161.425 221.600,161.700 221.600 C 161.975 221.599,162.717 221.154,163.349 220.611 C 163.981 220.067,164.836 219.516,165.249 219.384 C 165.662 219.253,166.000 218.978,166.000 218.773 C 166.000 218.568,166.360 218.400,166.800 218.400 C 167.240 218.400,167.600 218.220,167.600 218.000 C 167.600 217.780,167.960 217.600,168.400 217.600 C 168.840 217.600,169.200 217.420,169.200 217.200 C 169.200 216.980,169.560 216.800,170.000 216.800 C 170.440 216.800,170.800 216.620,170.800 216.400 C 170.800 216.180,171.070 216.000,171.400 216.000 C 171.730 216.000,172.000 215.820,172.000 215.600 C 172.000 215.380,172.349 215.200,172.776 215.200 C 173.203 215.200,173.664 215.020,173.800 214.800 C 173.936 214.580,174.487 214.400,175.024 214.400 C 175.561 214.400,176.000 214.220,176.000 214.000 C 176.000 213.780,176.360 213.600,176.800 213.600 C 177.240 213.600,177.600 213.420,177.600 213.200 C 177.600 212.980,178.140 212.800,178.800 212.800 C 179.460 212.800,180.000 212.640,180.000 212.444 C 180.000 212.109,180.922 211.883,184.503 211.342 C 185.329 211.218,186.105 210.955,186.226 210.758 C 186.348 210.561,187.247 210.400,188.224 210.400 C 189.201 210.400,190.000 210.220,190.000 210.000 C 190.000 209.756,191.867 209.600,194.800 209.600 C 197.733 209.600,199.600 209.444,199.600 209.200 C 199.600 208.980,199.780 208.800,200.000 208.800 C 200.220 208.800,200.400 208.980,200.400 209.200 " stroke="none" fill="#33cbcb" fill-rule="evenodd"></path><path id="path1" d="M3.847 0.281 C 3.433 0.390,2.443 1.130,1.647 1.926 L 0.200 3.373 0.098 148.102 C 0.004 281.406,0.047 292.931,0.650 294.096 C 1.423 295.592,2.173 296.400,2.788 296.400 C 3.033 296.400,3.620 296.760,4.092 297.200 C 5.354 298.376,117.200 298.475,117.200 297.300 C 117.199 296.915,116.921 295.265,116.581 293.634 C 116.240 292.003,115.693 288.493,115.363 285.834 C 115.034 283.175,114.663 280.595,114.539 280.100 L 114.313 279.200 65.957 279.200 L 17.600 279.200 17.600 263.200 L 17.600 247.200 68.702 247.200 L 119.805 247.200 120.343 245.900 C 122.565 240.529,125.486 234.666,127.373 231.785 C 127.765 231.188,128.233 230.181,128.415 229.549 L 128.744 228.400 73.172 228.400 L 17.600 228.400 17.600 123.000 L 17.600 17.600 83.600 17.600 C 124.308 17.600,149.600 17.743,149.600 17.974 C 149.600 18.180,151.445 18.435,153.700 18.541 C 158.490 18.767,161.116 19.141,161.426 19.642 C 161.548 19.839,162.267 20.000,163.024 20.000 C 163.781 20.000,164.400 20.180,164.400 20.400 C 164.400 20.620,164.940 20.800,165.600 20.800 C 166.260 20.800,166.800 20.980,166.800 21.200 C 166.800 21.420,167.340 21.600,168.000 21.600 C 168.660 21.600,169.200 21.780,169.200 22.000 C 169.200 22.220,169.560 22.400,170.000 22.400 C 170.440 22.400,170.800 22.580,170.800 22.800 C 170.800 23.020,171.036 23.200,171.325 23.200 C 171.614 23.200,172.783 23.650,173.923 24.200 C 175.063 24.750,176.177 25.200,176.398 25.200 C 176.619 25.200,176.800 25.350,176.800 25.532 C 176.800 25.715,177.295 26.119,177.900 26.430 C 178.505 26.740,179.291 27.311,179.647 27.697 C 180.003 28.084,180.512 28.400,180.778 28.400 C 181.045 28.400,181.954 29.120,182.800 30.000 C 183.646 30.880,184.513 31.600,184.728 31.600 C 185.309 31.600,188.975 35.295,189.830 36.743 C 190.238 37.434,190.714 38.000,190.886 38.000 C 191.059 38.000,191.200 72.470,191.200 114.600 L 191.200 191.200 200.000 191.200 L 208.800 191.200 208.800 114.600 C 208.800 72.470,208.941 38.000,209.114 38.000 C 209.286 38.000,209.740 37.471,210.122 36.824 C 211.019 35.306,213.418 32.840,215.200 31.603 C 215.970 31.068,217.077 30.129,217.660 29.515 C 218.244 28.902,218.943 28.400,219.214 28.400 C 219.484 28.400,219.997 28.084,220.353 27.697 C 220.709 27.311,221.495 26.740,222.100 26.430 C 222.705 26.119,223.200 25.715,223.200 25.532 C 223.200 25.350,223.381 25.200,223.602 25.200 C 223.823 25.200,224.937 24.750,226.077 24.200 C 227.217 23.650,228.386 23.200,228.675 23.200 C 228.964 23.200,229.200 23.020,229.200 22.800 C 229.200 22.580,229.560 22.400,230.000 22.400 C 230.440 22.400,230.800 22.220,230.800 22.000 C 230.800 21.780,231.340 21.600,232.000 21.600 C 232.660 21.600,233.200 21.420,233.200 21.200 C 233.200 20.980,233.740 20.800,234.400 20.800 C 235.060 20.800,235.600 20.620,235.600 20.400 C 235.600 20.180,236.219 20.000,236.976 20.000 C 237.733 20.000,238.452 19.839,238.574 19.642 C 238.884 19.141,241.510 18.767,246.300 18.541 C 248.555 18.435,250.400 18.180,250.400 17.974 C 250.400 17.743,275.692 17.600,316.400 17.600 L 382.400 17.600 382.400 123.400 L 382.400 229.200 327.200 229.200 L 272.000 229.200 272.000 230.014 C 272.000 230.462,272.301 231.288,272.670 231.850 C 274.125 234.072,277.079 239.834,278.589 243.400 C 278.962 244.280,279.432 245.313,279.634 245.695 C 279.835 246.077,280.000 246.642,280.000 246.952 C 280.000 247.980,280.981 248.000,331.833 248.000 L 382.400 248.000 382.400 263.600 L 382.400 279.200 334.043 279.200 L 285.687 279.200 285.461 280.100 C 285.337 280.595,284.966 283.160,284.637 285.800 C 284.099 290.120,283.140 295.434,282.563 297.300 C 282.204 298.460,394.516 298.361,396.000 297.200 C 396.550 296.770,397.159 296.414,397.353 296.409 C 398.018 296.392,399.600 294.201,399.814 293.000 C 399.931 292.340,399.976 226.904,399.914 147.587 L 399.800 3.373 398.213 1.787 L 396.627 0.200 316.247 0.200 C 252.298 0.200,235.833 0.302,235.700 0.700 C 235.604 0.987,234.864 1.200,233.967 1.200 C 233.105 1.200,232.400 1.380,232.400 1.600 C 232.400 1.820,231.680 2.000,230.800 2.000 C 229.920 2.000,229.200 2.180,229.200 2.400 C 229.200 2.620,228.761 2.800,228.224 2.800 C 227.687 2.800,227.136 2.980,227.000 3.200 C 226.864 3.420,226.313 3.600,225.776 3.600 C 225.239 3.600,224.800 3.780,224.800 4.000 C 224.800 4.220,224.440 4.400,224.000 4.400 C 223.560 4.400,223.200 4.580,223.200 4.800 C 223.200 5.020,222.660 5.200,222.000 5.200 C 221.340 5.200,220.800 5.380,220.800 5.600 C 220.800 5.820,220.440 6.000,220.000 6.000 C 219.560 6.000,219.200 6.180,219.200 6.400 C 219.200 6.620,218.840 6.800,218.400 6.800 C 217.960 6.800,217.600 6.980,217.600 7.200 C 217.600 7.420,217.255 7.600,216.833 7.600 C 216.412 7.600,216.007 7.735,215.933 7.900 C 215.860 8.065,215.080 8.554,214.200 8.987 C 212.058 10.040,207.957 12.767,207.153 13.672 C 206.797 14.072,206.323 14.400,206.100 14.400 C 205.876 14.400,204.488 15.570,203.015 17.000 C 201.542 18.430,200.185 19.600,200.000 19.600 C 199.815 19.600,198.458 18.430,196.985 17.000 C 195.512 15.570,194.124 14.400,193.900 14.400 C 193.677 14.400,193.203 14.072,192.847 13.672 C 192.055 12.780,187.387 9.600,186.871 9.600 C 186.666 9.600,186.274 9.330,186.000 9.000 C 185.726 8.670,185.164 8.400,184.751 8.400 C 184.338 8.400,184.000 8.220,184.000 8.000 C 184.000 7.780,183.640 7.600,183.200 7.600 C 182.760 7.600,182.400 7.420,182.400 7.200 C 182.400 6.980,182.040 6.800,181.600 6.800 C 181.160 6.800,180.800 6.620,180.800 6.400 C 180.800 6.180,180.440 6.000,180.000 6.000 C 179.560 6.000,179.200 5.820,179.200 5.600 C 179.200 5.380,178.660 5.200,178.000 5.200 C 177.340 5.200,176.800 5.020,176.800 4.800 C 176.800 4.580,176.440 4.400,176.000 4.400 C 175.560 4.400,175.200 4.220,175.200 4.000 C 175.200 3.780,174.761 3.600,174.224 3.600 C 173.687 3.600,173.136 3.420,173.000 3.200 C 172.864 2.980,172.313 2.800,171.776 2.800 C 171.239 2.800,170.800 2.620,170.800 2.400 C 170.800 2.180,170.080 2.000,169.200 2.000 C 168.320 2.000,167.600 1.820,167.600 1.600 C 167.600 1.380,166.895 1.200,166.033 1.200 C 165.136 1.200,164.396 0.987,164.300 0.700 C 164.134 0.201,5.723 -0.212,3.847 0.281 M55.437 59.231 C 53.661 60.183,52.800 60.948,52.800 61.571 C 52.800 61.807,52.665 62.001,52.500 62.003 C 52.335 62.005,51.975 62.491,51.700 63.083 C 51.097 64.382,51.012 71.600,51.600 71.600 C 51.820 71.600,52.000 71.835,52.000 72.122 C 52.000 72.870,54.512 75.200,55.319 75.200 C 55.694 75.200,56.000 75.380,56.000 75.600 C 56.000 75.820,56.540 76.000,57.200 76.000 C 57.860 76.000,58.400 76.180,58.400 76.400 C 58.400 76.664,74.133 76.800,104.800 76.800 C 135.467 76.800,151.200 76.664,151.200 76.400 C 151.200 76.180,151.740 76.000,152.400 76.000 C 153.060 76.000,153.600 75.820,153.600 75.600 C 153.600 75.380,153.868 75.200,154.195 75.200 C 159.195 75.200,159.727 63.378,154.893 59.691 L 153.462 58.600 105.231 58.496 L 57.000 58.392 55.437 59.231 M247.600 115.600 C 247.600 115.820,247.222 116.000,246.760 116.000 C 244.540 116.000,241.600 120.900,241.600 124.600 C 241.600 127.823,243.920 132.400,245.554 132.400 C 245.799 132.400,246.000 132.580,246.000 132.800 C 246.000 133.020,246.450 133.200,247.000 133.200 C 247.550 133.200,248.000 133.380,248.000 133.600 C 248.000 133.864,264.000 134.000,295.200 134.000 C 326.400 134.000,342.400 133.864,342.400 133.600 C 342.400 133.380,342.821 133.200,343.336 133.200 C 344.426 133.200,348.000 130.011,348.000 129.040 C 348.000 128.688,348.180 128.400,348.400 128.400 C 348.639 128.400,348.800 126.867,348.800 124.600 C 348.800 122.333,348.639 120.800,348.400 120.800 C 348.180 120.800,348.000 120.525,348.000 120.189 C 348.000 119.409,344.610 116.000,343.834 116.000 C 343.511 116.000,343.136 115.820,343.000 115.600 C 342.837 115.337,326.463 115.200,295.176 115.200 C 263.725 115.200,247.600 115.336,247.600 115.600 M57.600 172.000 C 57.600 172.220,57.179 172.400,56.664 172.400 C 55.698 172.400,52.630 175.061,51.700 176.705 C 51.094 177.777,51.007 184.800,51.600 184.800 C 51.820 184.800,52.000 185.075,52.000 185.411 C 52.000 186.343,55.220 189.337,56.828 189.900 C 58.648 190.537,101.009 190.632,101.400 190.000 C 101.536 189.780,101.961 189.600,102.345 189.600 C 103.283 189.600,105.723 187.317,106.761 185.470 C 109.344 180.870,106.133 172.400,101.805 172.400 C 101.472 172.400,101.200 172.220,101.200 172.000 C 101.200 171.738,93.667 171.600,79.400 171.600 C 65.133 171.600,57.600 171.738,57.600 172.000 " stroke="none" fill="#040404" fill-rule="evenodd"></path><path id="path2" d="M191.429 191.962 C 191.674 192.208,194.504 192.020,194.790 191.740 C 194.894 191.637,194.133 191.598,193.097 191.651 C 192.062 191.705,191.312 191.845,191.429 191.962 M205.210 191.740 C 205.496 192.020,208.326 192.208,208.571 191.962 C 208.688 191.845,207.938 191.705,206.903 191.651 C 205.867 191.598,205.106 191.637,205.210 191.740 M128.752 229.513 C 128.621 230.307,128.679 230.681,128.901 230.459 C 129.103 230.257,129.201 229.667,129.119 229.146 C 128.993 228.345,128.937 228.402,128.752 229.513 M272.349 232.600 C 272.565 233.040,273.034 233.760,273.393 234.200 L 274.044 235.000 273.651 234.200 C 273.435 233.760,272.966 233.040,272.607 232.600 L 271.956 231.800 272.349 232.600 M126.653 233.700 L 125.933 235.000 126.758 234.000 C 127.489 233.113,127.814 232.400,127.486 232.400 C 127.424 232.400,127.049 232.985,126.653 233.700 M115.701 285.400 C 115.705 286.280,115.787 286.593,115.883 286.095 C 115.979 285.598,115.975 284.878,115.875 284.495 C 115.775 284.113,115.696 284.520,115.701 285.400 M284.064 285.050 C 284.029 285.738,283.911 286.907,283.801 287.650 L 283.603 289.000 284.024 287.658 C 284.255 286.920,284.373 285.750,284.286 285.058 L 284.128 283.800 284.064 285.050 M116.480 291.000 C 116.480 291.440,116.624 292.250,116.800 292.800 C 117.054 293.592,117.120 293.633,117.120 293.000 C 117.120 292.560,116.976 291.750,116.800 291.200 C 116.546 290.408,116.480 290.367,116.480 291.000 M283.050 291.650 C 282.909 292.353,282.869 293.002,282.959 293.092 C 283.050 293.183,283.248 292.691,283.400 292.000 C 283.552 291.309,283.593 290.659,283.491 290.558 C 283.389 290.456,283.191 290.947,283.050 291.650 M117.275 295.000 C 117.286 295.440,117.432 296.340,117.600 297.000 L 117.905 298.200 117.925 297.000 C 117.935 296.340,117.789 295.440,117.600 295.000 L 117.256 294.200 117.275 295.000 M282.229 295.429 C 282.081 296.015,282.038 296.572,282.132 296.666 C 282.227 296.760,282.424 296.358,282.571 295.771 C 282.719 295.185,282.762 294.628,282.668 294.534 C 282.573 294.440,282.376 294.842,282.229 295.429 " stroke="none" fill="#1c6c6c" fill-rule="evenodd"></path><path id="path3" d="M197.700 191.496 C 198.965 191.575,201.035 191.575,202.300 191.496 C 203.565 191.416,202.530 191.351,200.000 191.351 C 197.470 191.351,196.435 191.416,197.700 191.496 " stroke="none" fill="#1c6464" fill-rule="evenodd"></path><path id="path4" d="M192.307 191.490 C 193.026 191.579,194.106 191.577,194.707 191.486 C 195.308 191.395,194.720 191.322,193.400 191.324 C 192.080 191.326,191.588 191.401,192.307 191.490 M205.507 191.490 C 206.226 191.579,207.306 191.577,207.907 191.486 C 208.508 191.395,207.920 191.322,206.600 191.324 C 205.280 191.326,204.788 191.401,205.507 191.490 M114.831 281.869 C 115.014 282.931,115.240 284.250,115.334 284.800 C 115.428 285.350,115.427 284.630,115.332 283.200 C 115.236 281.770,115.010 280.451,114.828 280.269 C 114.646 280.087,114.648 280.807,114.831 281.869 M285.042 280.333 C 284.929 280.516,284.759 281.821,284.665 283.233 C 284.572 284.645,284.572 285.350,284.666 284.800 C 284.760 284.250,284.984 282.945,285.164 281.900 C 285.484 280.040,285.455 279.664,285.042 280.333 M115.695 288.400 C 115.695 288.950,115.832 289.940,116.000 290.600 C 116.272 291.670,116.305 291.692,116.305 290.800 C 116.305 290.250,116.168 289.260,116.000 288.600 C 115.728 287.530,115.695 287.508,115.695 288.400 M283.818 289.418 C 283.665 290.439,283.622 291.355,283.722 291.455 C 283.822 291.555,284.029 290.802,284.182 289.782 C 284.335 288.761,284.378 287.845,284.278 287.745 C 284.178 287.645,283.971 288.398,283.818 289.418 M116.480 293.000 C 116.480 293.440,116.624 294.250,116.800 294.800 C 117.054 295.592,117.120 295.633,117.120 295.000 C 117.120 294.560,116.976 293.750,116.800 293.200 C 116.546 292.408,116.480 292.367,116.480 293.000 " stroke="none" fill="#144444" fill-rule="evenodd"></path></g></svg>